<?xml version="1.0" encoding="UTF-8" standalone="no"?>
<!-- Created with Inkscape (http://www.inkscape.org/) -->

<svg
   width="569.79358"
   height="165.17307"
   viewBox="0 0 150.75788 43.702039"
   version="1.1"
   id="svg1"
   inkscape:version="1.4.2 (f4327f4, 2025-05-13)"
   sodipodi:docname="ActionsText8.svg"
   xmlns:inkscape="http://www.inkscape.org/namespaces/inkscape"
   xmlns:sodipodi="http://sodipodi.sourceforge.net/DTD/sodipodi-0.dtd"
   xmlns="http://www.w3.org/2000/svg"
   xmlns:svg="http://www.w3.org/2000/svg">
  <sodipodi:namedview
     id="namedview1"
     pagecolor="#ffffff"
     bordercolor="#000000"
     borderopacity="0.25"
     inkscape:showpageshadow="2"
     inkscape:pageopacity="0.0"
     inkscape:pagecheckerboard="0"
     inkscape:deskcolor="#d1d1d1"
     inkscape:document-units="mm"
     showguides="true"
     inkscape:zoom="1.9981322"
     inkscape:cx="289.52038"
     inkscape:cy="62.30819"
     inkscape:window-width="1920"
     inkscape:window-height="995"
     inkscape:window-x="-8"
     inkscape:window-y="-8"
     inkscape:window-maximized="1"
     inkscape:current-layer="layer1">
    <sodipodi:guide
       position="-21.460152,16.830599"
       orientation="1,0"
       id="guide14"
       inkscape:locked="false" />
  </sodipodi:namedview>
  <defs
     id="defs1" />
  <g
     inkscape:groupmode="layer"
     id="layer2"
     inkscape:label="Layer 2">
    <rect
       style="fill:#d40000;fill-opacity:1;stroke:none;stroke-width:3.062;stroke-dasharray:none;stroke-opacity:1"
       id="rect22-3"
       width="10.593226"
       height="38.532864"
       x="75.72821"
       y="2.6500394"
       ry="0.042822432" />
    <rect
       style="fill:#d45800;fill-opacity:1;stroke:none;stroke-width:3.062;stroke-dasharray:none;stroke-opacity:1"
       id="rect22-8-2-8"
       width="10.593226"
       height="38.532864"
       x="86.143829"
       y="2.1292808"
       ry="0.042822432" />
    <rect
       style="fill:#ffff00;fill-opacity:1;stroke:none;stroke-width:3.062;stroke-dasharray:none;stroke-opacity:1"
       id="rect22-8-1-3-7"
       width="10.593226"
       height="38.532864"
       x="96.587585"
       y="2.9250104"
       ry="0.042822432" />
    <rect
       style="fill:#00ff00;fill-opacity:1;stroke:none;stroke-width:3.062;stroke-dasharray:none;stroke-opacity:1"
       id="rect22-8-1-3-8-4"
       width="10.593226"
       height="38.532864"
       x="107.32213"
       y="2.932431"
       ry="0.042822432" />
    <rect
       style="fill:#0000ff;fill-opacity:1;stroke:none;stroke-width:3.062;stroke-dasharray:none;stroke-opacity:1"
       id="rect22-8-1-3-8-8-2"
       width="10.593226"
       height="38.532864"
       x="117.6483"
       y="2.527765"
       ry="0.042822432" />
    <rect
       style="fill:#800080;fill-opacity:1;stroke:none;stroke-width:3.062;stroke-dasharray:none;stroke-opacity:1"
       id="rect22-8-1-3-8-8-5-7"
       width="10.593226"
       height="38.532864"
       x="128.23163"
       y="2.2634294"
       ry="0.042822432" />
    <rect
       style="fill:#ff00ff;fill-opacity:1;stroke:none;stroke-width:3.062;stroke-dasharray:none;stroke-opacity:1"
       id="rect22-8-1-3-8-8-5-3-7"
       width="10.593226"
       height="38.532864"
       x="138.55409"
       y="2.3985641"
       ry="0.042822432" />
  </g>
  <g
     inkscape:label="Layer 1"
     inkscape:groupmode="layer"
     id="layer1"
     transform="translate(1.5801141,2.6621567)">
    <g
       id="g14"
       transform="translate(-84.566344,1.2559967)"
       style="fill:#ffffff;stroke:none;stroke-opacity:1;fill-opacity:1">
      <path
         style="fill:#ffffff;stroke:none;stroke-width:0.499999;stroke-opacity:1;fill-opacity:1"
         d="m 86.387245,32.9235 6.554224,-0.09363 -0.984542,-16.184507 3.044441,-10.2196529 5.804192,10.6286589 3.83989,15.213711 h 4.40069 L 100.15112,1.8377499 90.881569,1.7441182 Z"
         id="path7"
         sodipodi:nodetypes="cccccccccc" />
      <path
         style="fill:#ffffff;stroke:none;stroke-width:0.499999;stroke-opacity:1;fill-opacity:1"
         d="m 90.874916,16.204952 10.299494,0.187264 1.68538,3.277111 -11.423083,0.09363 z"
         id="path8"
         sodipodi:nodetypes="ccccc" />
    </g>
    <path
       style="fill:#ffffff;fill-opacity:1;stroke:none;stroke-width:0.2;stroke-dasharray:none;stroke-opacity:1"
       d="m 48.831548,13.234879 -1.257945,6.024897 c 0,0 -4.022263,-3.113689 -6.157314,-2.515891 -1.929715,0.540306 -3.467476,3.147474 -3.575212,4.833159 -0.145333,2.273947 0.538364,5.22397 2.515891,6.355936 1.996451,1.142799 6.819389,-1.059322 6.819389,-1.059322 l 1.920024,5.230404 -10.129774,0.728284 c 0,0 -7.475124,1.685857 -6.376706,-11.556967 0.687812,-8.292456 7.634651,-9.166031 7.634651,-9.166031 z"
       id="path14"
       sodipodi:nodetypes="ccssscccscc" />
    <path
       style="fill:#ffffff;fill-opacity:1;stroke:#000000;stroke-width:0;stroke-dasharray:none;stroke-opacity:1"
       d="m 59.268916,4.8688523 0.09363,8.7077547 -5.80517,-0.280895 -0.280895,4.494325 5.898801,-0.09363 -0.280895,15.168347 10.05962,0.528656 0.06041,-4.804732 -6.288505,-0.541532 -0.08625,-10.257111 c 0,0 7.584173,1.685372 7.209647,0.374527 -0.374528,-1.310844 -1.310846,-4.868852 -1.310846,-4.868852 l -6.835119,0.468159 0.655421,-9.4568093 z"
       id="path15"
       sodipodi:nodetypes="ccccccccccscccc" />
    <path
       style="fill:#ffffff;fill-opacity:1;stroke:#000000;stroke-width:0;stroke-dasharray:none;stroke-opacity:1"
       d="m 77.510021,16.748589 3.045552,2.515892 -0.529661,10.990471 -5.958692,3.575214 10.063567,-0.132413 -0.794493,-18.008486 -6.75318,-0.264831 z"
       id="path16" />
    <path
       style="fill:#ffffff;fill-opacity:1;stroke:none;stroke-width:0.940097;stroke-dasharray:none;stroke-opacity:1"
       d="m 81.036809,10.424526 c -0.503821,-0.01364 -1.174291,0.393702 -1.282006,1.021003 -0.159393,0.928272 0.495186,2.210385 1.228588,2.382343 0.777644,0.18233 1.932659,-0.762262 1.923009,-1.76974 -0.0092,-0.962807 -1.114123,-1.613159 -1.869591,-1.633606 z"
       id="path17"
       sodipodi:nodetypes="sssss" />
    <path
       style="fill:#ffffff;fill-opacity:1;stroke:none;stroke-width:0.634344;stroke-dasharray:none;stroke-opacity:1"
       d="m 107.81311,17.373705 -0.54776,16.207071 3.97127,-0.710837 -0.13694,-13.363726 h 6.29926 l 3.83433,13.363726 h 4.51903 l -7.25783,-17.486575 -8.49031,0.99517 -0.82166,-1.56384 z"
       id="path19" />
    <path
       style="fill:#ffffff;fill-opacity:1;stroke:#000000;stroke-width:0;stroke-dasharray:none;stroke-opacity:1"
       d="m 128.83483,28.132957 0.6879,3.666525 7.12854,2.744979 6.21316,-4.776076 -5.64004,-7.942612 -5.05188,-0.993825 -2.85978,-2.338262 4.35965,-2.31874 4.77388,2.8217 2.62899,-2.273639 -7.40287,-3.487183 -8.00049,4.408684 4.64899,6.77857 6.75595,1.355163 2.2261,2.948198 -3.39024,2.577814 z"
       id="path20"
       sodipodi:nodetypes="ccccccccccccccccc" />
    <path
       style="fill:#000000;fill-opacity:0;stroke:#ffffff;stroke-width:3.062;stroke-dasharray:none;stroke-opacity:1"
       d="m 88.76714,20.677076 c 1.039296,-0.680586 5.952323,-5.274543 5.952323,-5.274543 l 8.314357,4.93425 v 7.316301 l -5.101993,4.679029 -8.503317,-2.211905 z"
       id="path21" />
    <rect
       style="fill:none;fill-opacity:1;stroke:#ffffff;stroke-width:3.07828;stroke-dasharray:none;stroke-opacity:1"
       id="rect21"
       width="147.67961"
       height="40.62376"
       x="-0.040974159"
       y="-1.1230167"
       ry="0.051722493" />
  </g>
</svg>
